<svg xmlns="http://www.w3.org/2000/svg" viewBox="0 0 100 100" width="100" height="100" role="img" aria-label="Avatar femme">
  <defs>
    <linearGradient id="wlmF" x1="0" y1="0" x2="1" y2="1">
      <stop offset="0" stop-color="#FF5C8A"/>
      <stop offset="1" stop-color="#FF9EC0"/>
    </linearGradient>
  </defs>
  <rect width="100" height="100" fill="url(#wlmF)"/>
  <!-- cheveux -->
  <path d="M28 44 C28 20 40 16 50 16 C60 16 72 20 72 44 C72 56 66 60 64 60 L64 40 C64 28 58 24 50 24 C42 24 36 28 36 40 L36 60 C34 60 28 56 28 44 Z" fill="#ffffff" fill-opacity="0.92"/>
  <!-- visage -->
  <circle cx="50" cy="42" r="14" fill="#ffffff" fill-opacity="0.92"/>
  <!-- épaules -->
  <path d="M26 86 c0-14 11-23 24-23 s24 9 24 23 z" fill="#ffffff" fill-opacity="0.92"/>
</svg>
